<?xml version="1.0" encoding="UTF-8"?>
<!DOCTYPE svg PUBLIC "-//W3C//DTD SVG 1.1//EN" "http://www.w3.org/Graphics/SVG/1.1/DTD/svg11.dtd">
<!-- Creator: CorelDRAW 2021 (64-Bit) -->
<svg xmlns="http://www.w3.org/2000/svg" xml:space="preserve" width="8.5in" height="11in" version="1.1" style="shape-rendering:geometricPrecision; text-rendering:geometricPrecision; image-rendering:optimizeQuality; fill-rule:evenodd; clip-rule:evenodd"
viewBox="0 0 8500 11000"
 xmlns:xlink="http://www.w3.org/1999/xlink"
 xmlns:xodm="http://www.corel.com/coreldraw/odm/2003">
 <defs>
  <style type="text/css">
   <![CDATA[
    .str0 {stroke:#FEC400;stroke-width:6.94;stroke-linecap:round;stroke-linejoin:round;stroke-miterlimit:2.61313}
    .fil0 {fill:#FFC70A}
   ]]>
  </style>
 </defs>
 <g id="Layer_x0020_1">
  <metadata id="CorelCorpID_0Corel-Layer"/>
  <path class="fil0 str0" d="M2472 6083.25c-0.33,-70.29 -10.19,-232.42 6.74,-289.38l475.43 -8.85 72 268.98c-196.57,14.78 -352.03,29.25 -554.17,29.25zm596.02 5.92l-8.51 -19.56 31.92 -4.35c-37.17,-38.89 -22.06,22.33 -52.73,-51.28l-57.26 -232.04 76.56 -2.84 -2.81 -21.49c-85.22,0 -76.48,3.06 -91.37,-29.98 -18.99,16.79 -3.36,24.46 -33.97,35.12l-195.23 7.89c-87.24,1.12 -175.22,0.07 -260.87,-0.2l-10 -41.36c-39,41.96 22,25.41 -49.62,47.28 38.4,43.72 37.45,-30.84 36.45,135.1 -0.34,56.12 -0.36,112.39 0.04,168.51 -50.66,6.31 -85.4,-13.43 -85.98,24.4l78.28 0 18.84 36.64 18.49 -35.92c94.67,-1.43 191.63,1.8 285.97,-4.38 91.93,-6.02 183.88,-21.47 275,-25.43 10.34,38.25 10.92,51.85 37.2,78.8 4.15,-8.95 4.33,-2.52 3.62,-20.68l-14.02 -44.23z"/>
 </g>
</svg>
