<?xml version="1.0" encoding="UTF-8"?>
<!DOCTYPE svg PUBLIC "-//W3C//DTD SVG 1.1//EN" "http://www.w3.org/Graphics/SVG/1.1/DTD/svg11.dtd">
<!-- Creator: CorelDRAW 2021 (64-Bit) -->
<svg xmlns="http://www.w3.org/2000/svg" xml:space="preserve" width="8.5in" height="11in" version="1.1" style="shape-rendering:geometricPrecision; text-rendering:geometricPrecision; image-rendering:optimizeQuality; fill-rule:evenodd; clip-rule:evenodd"
viewBox="0 0 8500 11000"
 xmlns:xlink="http://www.w3.org/1999/xlink"
 xmlns:xodm="http://www.corel.com/coreldraw/odm/2003">
 <defs>
  <style type="text/css">
   <![CDATA[
    .str0 {stroke:#FEC400;stroke-width:6.94;stroke-linecap:round;stroke-linejoin:round;stroke-miterlimit:2.61313}
    .fil0 {fill:#8A8A8A}
    .fil1 {fill:#FEFEFE}
    .fil2 {fill:#FFC70A}
   ]]>
  </style>
 </defs>
 <g id="Layer_x0020_1">
  <metadata id="CorelCorpID_0Corel-Layer"/>
  <path class="fil0" d="M3962.76 5311.13c34.97,3.67 -13.16,-24.52 -16.39,-26.08 23.15,16.72 5.07,0.68 16.39,26.08z"/>
  <path class="fil1" d="M4828.8 7418.5c40.05,-27.43 658.95,-12.02 682.8,0 -10.67,9.8 -2.37,11.35 -49,14.79l-319.7 40.92c71.42,10.39 163.39,3.81 197.56,27.63l-54.85 6.89c-70.88,-2.11 -350.8,-2.43 -372.74,-27.37 83.46,-24.87 244.42,-9.48 346.84,-50.78 -78.58,-2.73 -390.37,15.57 -430.91,-12.08zm352.13 -177.11c17.54,-11.86 -20,-11.27 28.12,-16.83 62.2,-7.18 69.49,27.35 56.08,80.25 -22.45,8.92 -34.93,11.19 -65.89,5.36 -4.26,53.98 9.51,22.44 -18.31,35.09l0 -103.87zm-258.24 1.37c33.19,-26.9 47.93,-21.07 83.96,-1.44l-7.9 66.88c-59.4,12.63 -89.88,7.13 -76.07,-65.43zm622.57 -9.54l26.85 -12.38 -16.53 29.06c-6.24,21.77 -12.04,41.33 -20.98,63.01 -18.36,44.49 -5.35,34.83 -51.54,35.18l28.69 -34.14 -26.72 -88.96c34,20.28 12.94,22.59 41.13,54.37l19.09 -46.14zm-114.54 -7.94l31.95 7.86 3.78 81.69c-20.74,-19.52 -9.78,1.37 -18.55,-31.83 -1.93,-7.29 -1.77,-29.91 -2.33,-33.35l-34.57 -1.59 -1.68 65.13 -23.19 1.88 6.33 -90.05 38.26 0.26zm-123.83 5.27l56.54 -2.34 3.11 83.56c-3.47,-0.04 -31.37,1.54 -38.74,0.58 -25.54,-3.32 -13.46,-3.65 -20.95,-9.33 -16.41,-14.18 -14.97,31.9 -13.52,-19.96 28.38,-29.28 19.26,-12.33 55.21,-31.25 -12.74,-10.38 23.89,-14.17 -27.59,-9.54 -21.81,13.17 27.88,16.74 -28.5,9.07l14.43 -20.78zm-275.75 -3.33l126.86 -2.28 -14.79 85.22c-0.01,-42.3 8,-40.01 -14.57,-67.59 -37.24,15.21 -24.97,17.76 -24.92,67.87l-18.77 3.92c0,-58.43 14.87,-61.91 -34.92,-72.9l-21.83 68.69 2.94 -82.93zm-237.79 55.78c-7.61,-106.07 72.63,-117.54 104.2,-63.15 -49.56,-6.27 1.78,-2.57 -32.8,-9.02 -22.75,-4.24 -56.4,-13.54 -56.77,41.75 -0.4,61.42 46.03,39.22 90.13,31.41 -18.51,31.87 -25.14,31.56 -74,28.93 -16.16,-18.98 -12.25,-18.34 -30.76,-29.93z"/>
  <g id="_1701708148416">
   <path class="fil2 str0" d="M2609.67 5814.19c24.61,-5.24 21.52,12 52.84,-51.93 52.66,17.28 88.79,62.84 137.69,70.59l26.57 -71.39c71.33,16.95 94.55,49.39 138.72,63.87l51.13 -52.58c44.56,15.85 34.43,29.34 73.89,52.11l71.22 -43.2c22.54,22.49 32.2,39.35 68.41,52.05 69.94,-87.13 43.12,-21.13 68.25,-74.5 -44.11,7.6 -36.23,13.28 -63.5,32.2 -17.93,12.44 2.48,1.27 -23.55,13.77 -58.07,-78.36 -73.65,-28.15 -120.84,-4.31 -40.26,-27.36 -77.93,-94.34 -123.53,1.55 -44.34,-16.92 -87.93,-58.3 -147.34,-63.93l-32.2 67.18c-45.85,-19.44 -87.19,-62.87 -131.08,-72.43l-46.68 80.96z"/>
   <path class="fil2 str0" d="M2832.89 6176.43c27.78,-31.94 54.35,-43.67 89.05,-79.09 33.28,13.12 67.81,48.35 106.05,67.38 26.24,-15.25 35.58,-30.24 62.51,-44.95 26.6,14.09 74.88,48.59 104.18,56.77 45,-24.06 90.73,-51.25 103.71,-96.78 -48.07,10.62 -21.11,11.53 -56.05,41.29 -14.46,12.31 -32.29,21.49 -47.66,31.91 -149.15,-63.98 -61.65,-83.89 -166.69,-15.52 -23.76,-13.55 -33.46,-17.12 -52.87,-31.96 -84.34,-64.48 -49.76,-15.74 -155.59,48.28 -31.2,-21.13 -80.88,-51.29 -114.5,-63.09 -26.26,17.1 -48.2,34.85 -67.17,55.69l-16.18 -46.87c-18.59,25.43 -12.09,47.12 -4.63,72.96 32.98,2.96 62.99,-37.25 87.97,-56.39 50.98,14.83 69.41,44.44 127.86,60.39z"/>
  </g>
 </g>
</svg>
