<?xml version="1.0" encoding="UTF-8"?>
<!DOCTYPE svg PUBLIC "-//W3C//DTD SVG 1.1//EN" "http://www.w3.org/Graphics/SVG/1.1/DTD/svg11.dtd">
<!-- Creator: CorelDRAW 2021 (64-Bit) -->
<svg xmlns="http://www.w3.org/2000/svg" xml:space="preserve" width="8.5in" height="11in" version="1.1" style="shape-rendering:geometricPrecision; text-rendering:geometricPrecision; image-rendering:optimizeQuality; fill-rule:evenodd; clip-rule:evenodd"
viewBox="0 0 8500 11000"
 xmlns:xlink="http://www.w3.org/1999/xlink"
 xmlns:xodm="http://www.corel.com/coreldraw/odm/2003">
 <defs>
  <style type="text/css">
   <![CDATA[
    .fil0 {fill:#FEC400}
   ]]>
  </style>
 </defs>
 <g id="Layer_x0020_1">
  <metadata id="CorelCorpID_0Corel-Layer"/>
  <path class="fil0" d="M3843.22 5440.59c-41.05,-12.98 -50.25,-32.42 -64.02,-58.74 -42.72,24 -10.74,17.07 -39.35,31.69 -13.98,7.15 -10.31,7.29 -31.97,5.88 -70.93,-4.61 8.31,-19.8 -72.92,-10.13 -70.14,8.34 -68.32,39.54 -126.57,-8.85 -121.91,78.63 -184.64,29.56 -208.52,26.39 -128.96,-17.12 -103.45,-19.7 -84.28,-68.09 -26.05,-30.36 -75.76,-73.05 -71.89,-133.22l55 -3.35 -13.33 -59.18c21.81,23.39 -3.03,5.38 31.31,15.64 13.81,-24.59 3.6,-60.35 39.25,-59.23 33.87,1.07 24.38,22.21 84.8,40.85 7.43,-48.84 50.2,-83.06 79.46,-101.44l56.94 39.81c43.35,-16.66 62.94,-39.99 91.15,-17.07l31.09 32.4c1.32,1.26 5.49,7.15 6.47,5.27 1,-1.91 4.27,3.75 6.72,5.15 22.66,-15.66 77.69,-105.02 104.43,-6.57 77.78,-28.94 69.9,-43.28 112.11,-56.93 11.61,63.8 10.53,56.65 33.49,81.3l15.98 -10.15c2.3,-1.48 5.15,-3.3 7.62,-4.89l56.66 -32.57 3.22 68.37c52.54,-11.06 32.41,-31.41 72.71,1.01 29.46,23.7 9.7,41.56 5.48,66.65 54.28,-0.59 97.11,6.7 98.61,54.23 -8.55,7.3 -14.51,8.28 -20.08,8.61 -2.45,0.15 -28.11,-4.67 -28.98,-4.79 2.09,44.37 19.5,65.16 4.12,92.4 -6.84,12.11 -89.72,104.39 -145.07,45.71l-18.17 -22.53 -17.78 24.05c-8.44,9.87 -11.94,25.56 -53.68,12.37zm-730.73 -246.26l0 76.62c3.35,10.96 6.72,22.83 11.16,33.57 13.3,32.15 9.64,21.4 23.81,41.26 34.11,47.8 4.94,13.37 17.17,88.07 253.39,79.68 286.22,18.29 340.38,22.8 36.89,3.07 27.35,12.87 76.46,4.89 21.31,-3.46 44.17,-16.16 61.85,-16.19 23.39,-0.03 42.98,10.73 84.95,8.45 93.91,-5.11 108.5,45.8 259.04,27.5 33.69,-4.09 63.52,-19.89 87.67,-41.92 80.94,-73.82 20.43,-102.36 83.31,-130.56 -0.35,-137.55 -40.69,-64.69 -86.04,-135.01 -17.81,-27.61 2.47,-5.72 -21.85,-30.95 -85.74,-88.96 -50.99,40.58 -83.68,-83.97 -38.41,1.88 -81.43,4.72 -93.76,31.26 -7.49,-28.34 -12.72,-44.82 -20.83,-62.51 -62.77,1.73 -81.91,11.33 -114.55,41.67 -52.78,-35.42 15.51,-22.6 -51,-29.6 -38.72,-4.07 -60.08,12.41 -73.97,29.87 -17.9,-48.95 -93.92,-30.94 -135.44,-10.69 -39.48,-103.5 -156.84,38.43 -166.69,41.67 1.3,1.06 8.32,34.89 4.19,2.79 -0.4,-3.12 1.57,-0.1 -4.29,-13.21 -61.72,-17.82 -103.1,-12.41 -142.77,44.13 -21.27,30.31 -15.37,10.69 -13.4,54.11l-41.72 5.94z"/>
 </g>
</svg>
